<?xml version="1.0" encoding="UTF-8" standalone="no"?>
<svg
   xmlns:dc="http://purl.org/dc/elements/1.1/"
   xmlns:cc="http://creativecommons.org/ns#"
   xmlns:rdf="http://www.w3.org/1999/02/22-rdf-syntax-ns#"
   xmlns:svg="http://www.w3.org/2000/svg"
   xmlns="http://www.w3.org/2000/svg"
   version="1.1"
   id="svg2"
   viewBox="0 0 418.51052 368.3645"
   height="103.96065mm"
   width="118.11297mm">
  <defs
     id="defs4" />
  <metadata
     id="metadata7">
    <rdf:RDF>
      <cc:Work
         rdf:about="">
        <dc:format>image/svg+xml</dc:format>
        <dc:type
           rdf:resource="http://purl.org/dc/dcmitype/StillImage" />
        <dc:title></dc:title>
      </cc:Work>
    </rdf:RDF>
  </metadata>
  <g
     transform="translate(76.067369,-570.16055)"
     id="layer1">
    <path
       id="path3428"
       d="m 112.62613,938.22763 c -2.90903,-0.33282 -7.12715,-1.5444 -9.5978,-2.75676 -2.99159,-1.46799 -6.040574,-4.52841 -7.500824,-7.52895 -1.16073,-2.38506 -2.10138,-6.01821 -2.10138,-8.11635 l 0,-1.06266 6.56795,0 6.567944,0 0.3238,1.83822 c 0.74814,4.24731 3.09571,6.86691 7.07834,7.89861 4.8633,1.25982 10.38019,-0.0506 13.14104,-3.12129 2.59679,-2.88828 2.74009,-6.74439 0.33904,-9.12351 -1.42908,-1.41603 -4.0518,-2.53119 -9.96001,-4.23489 -7.34621,-2.11839 -10.43496,-3.22248 -13.66862,-4.88595 -6.108964,-3.14259 -8.889484,-7.40574 -8.889484,-13.6296 0,-8.80359 5.118254,-14.55537 15.234934,-17.12067 2.28417,-0.57918 3.41224,-0.6636 8.91507,-0.66702 5.66432,-0.004 6.5573,0.0663 8.85,0.69213 1.4025,0.3828 3.39324,1.09821 4.42387,1.58979 2.17802,1.03881 5.03609,3.56895 6.32297,5.59746 1.09853,1.7316 2.07017,4.81977 2.33753,7.42938 l 0.19969,1.94904 -6.7089,-0.0809 -6.7089,-0.0808 -0.21211,-1.24347 c -0.5277,-3.09369 -2.65461,-5.65281 -5.49465,-6.61122 -2.11189,-0.71271 -6.18286,-0.69465 -8.12289,0.036 -3.64808,1.37397 -5.53661,3.77844 -5.53661,7.04919 0,4.22532 1.4375,5.12262 15.45,9.64425 8.88341,2.86653 12.23751,4.49337 15.0242,7.28712 1.64562,1.64979 2.28633,2.54925 2.80526,3.93813 1.75206,4.68927 1.54769,9.64851 -0.58548,14.20698 -1.36377,2.91432 -5.01156,6.4062 -8.43661,8.07603 -5.6545,2.75676 -12.89505,3.85119 -20.05737,3.03171 z m 83.4,0.0192 c -6.18815,-0.77238 -10.90249,-2.76567 -14.09743,-5.96061 -3.05411,-3.05409 -4.60017,-6.63222 -5.22754,-12.09825 l -0.16355,-1.425 6.70296,0 6.70295,0 0.19996,1.7013 c 0.62003,5.27553 4.65943,8.47716 10.7167,8.49402 6.74614,0.0189 11.41821,-3.44523 11.45517,-8.49318 0.0303,-4.13859 -2.21134,-5.82522 -11.01383,-8.28696 -12.84775,-3.59304 -17.91274,-6.14994 -20.82674,-10.51368 -2.18577,-3.27321 -2.92002,-7.50525 -2.0302,-11.7015 1.60398,-7.56408 7.23531,-12.15639 17.13005,-13.96941 3.84964,-0.70536 12.21522,-0.47574 15.6015,0.42825 7.97277,2.12841 12.28098,6.83871 13.00263,14.21616 l 0.22743,2.325 -6.66366,0 -6.66366,0 -0.21298,-1.275 c -0.44975,-2.6925 -2.12477,-5.09499 -4.3402,-6.22521 -1.5578,-0.79473 -4.65811,-1.28661 -6.58905,-1.04535 -4.95943,0.61965 -7.97401,3.27336 -8.31977,7.32384 -0.11676,1.36782 -0.0121,1.91478 0.57564,3.00882 1.07118,1.99383 3.46508,3.13674 13.45661,6.42447 11.35023,3.73479 15.05445,5.6064 17.68672,8.93649 1.72738,2.18532 2.44219,4.36239 2.61868,7.97574 0.18489,3.78513 -0.2343,6.11322 -1.62546,9.02754 -2.52375,5.28693 -8.50957,9.20016 -16.35439,10.69164 -3.12573,0.59427 -8.9869,0.81054 -11.94854,0.44088 z m 123,0.10935 c -2.7723,-0.29244 -9.55359,-1.68 -12.85611,-2.63058 -15.15213,-4.36125 -29.87934,-13.46349 -42.95469,-26.54841 -2.56344,-2.56533 -5.85051,-6.14922 -7.30461,-7.96422 -8.94399,-11.16399 -14.68047,-23.18547 -17.01408,-35.65508 -0.81075,-4.33233 -1.17384,-13.90558 -0.53577,-14.12687 0.22839,-0.0792 20.86287,-3.32826 45.85437,-7.22013 24.9915,-3.89187 45.4536,-7.10353 45.4713,-7.13702 0.0177,-0.0335 1.01964,-1.24655 2.22645,-2.6957 1.93542,-2.324 2.25138,-2.58656 2.6787,-2.22591 0.26643,0.22488 2.142,1.79199 4.16793,3.48248 l 3.68352,3.0736 -0.53352,0.70281 c -0.29343,0.38655 -1.29462,1.62509 -2.22492,2.75232 l -1.6914,2.0495 1.28058,46.2 c 0.9468,34.15779 1.19217,46.25613 0.94143,46.41528 -0.46497,0.29514 -2.78892,0.78279 -6.18918,1.29873 -2.61261,0.39642 -12.04803,0.5406 -15,0.2292 z m 14.39865,-9.16821 c -0.004,-3.47583 -2.11245,-76.53879 -2.21196,-76.63832 -0.0634,-0.0634 -0.57987,0.4273 -1.14762,1.09056 l -1.03221,1.20593 -4.08669,-3.36658 c -2.24766,-1.85162 -4.09419,-3.48376 -4.10343,-3.62698 -0.009,-0.14322 0.39657,-0.73115 0.90177,-1.30651 0.50517,-0.57536 0.85659,-1.108 0.78093,-1.18365 -0.16149,-0.16151 -75.68994,11.54122 -76.49652,11.85274 -0.43011,0.16611 8.80611,8.01404 43.2,36.70658 24.0609,20.0724 43.84833,36.50562 43.97208,36.51825 0.12375,0.0126 0.2244,-0.55077 0.22365,-1.25202 z m -408.298654,-22.27506 0,-30.45 6.6,0 6.6,0 0,12.45 0,12.45 13.04667,0 13.04667,0 0.0783,-12.375 0.0783,-12.375 6.6,0 6.6,0 0.0764,30.375 0.0764,30.375 -6.75143,0 -6.75143,0 0,-12.9 0,-12.9 -13.05,0 -13.05,0 0,12.9 0,12.9 -6.6,0 -6.6,0 0,-30.45 z m 66.6,25.05 0,-5.4 6.15,0 6.15,0 0,5.4 0,5.4 -6.15,0 -6.15,0 0,-5.4 z m 26.4,-25.05207 0,-30.4521 20.475,0.0771 20.475,0.0771 0.0826,4.725 0.0826,4.725 -14.10762,0 -14.10762,0 0,7.79688 0,7.79688 13.275,0.0781 13.275,0.0781 0.0826,4.725 0.0826,4.725 -13.35762,0 -13.35762,0 0,8.24712 0,8.24712 14.475,0.0779 14.475,0.0779 0.0826,4.725 0.0826,4.725 -21.00762,0 -21.00762,0 0,-30.45207 z m 52.2,25.05207 0,-5.4 6.15,0 6.15,0 0,5.4 0,5.4 -6.15,0 -6.15,0 0,-5.4 z m 83.400004,0 0,-5.4 6,0 6,0 0,5.4 0,5.4 -6,0 -6,0 0,-5.4 z m 83.1,0 0,-5.4 6.15,0 6.15,0 0,5.4 0,5.4 -6.15,0 -6.15,0 0,-5.4 z m -42,-83.30831 c -5.78812,-0.34143 -14.37074,-1.59558 -21.38515,-3.12494 -31.43147,-6.85306 -64.08078,-25.93128 -91.564854,-53.50481 -27.33302,-27.42198 -43.21149,-58.08422 -47.31187,-91.36193 -0.46684,-3.78881 -0.53536,-18.43688 -0.0881,-18.84176 0.165,-0.14937 39.5175,-6.51414 87.450004,-14.14394 47.9325,-7.62979 87.51565,-13.96054 87.96255,-14.06833 0.58639,-0.14143 2.36256,-2.05432 6.38147,-6.87269 l 5.56893,-6.67671 8.09353,6.75883 c 4.45143,3.71736 8.09352,6.82586 8.09352,6.90776 0,0.0819 -2.50944,3.14996 -5.57652,6.81788 l -5.57649,6.66896 0.18312,6 c 0.37845,12.39757 3.51771,171.80216 3.38604,171.93384 -0.35766,0.35767 -7.46711,1.94225 -11.19422,2.49501 -7.34721,1.08965 -16.60831,1.47373 -24.42193,1.01283 z m 24.90782,-88.63465 c -0.84046,-42.29887 -1.60569,-78.05117 -1.70052,-79.44956 -0.16374,-2.41468 -0.19717,-2.51208 -0.66486,-1.93697 -0.27084,0.33306 -0.89949,1.09825 -1.39699,1.70042 l -0.90456,1.09486 -7.94544,-6.61019 c -4.37,-3.6356 -8.04409,-6.70329 -8.16465,-6.81709 -0.12056,-0.11379 0.38631,-0.94505 1.12637,-1.84724 0.74006,-0.90219 1.21678,-1.68328 1.05936,-1.73575 -0.31715,-0.10572 -156.992194,24.83868 -157.191534,25.02663 -0.0688,0.0648 -0.0688,0.16485 0,0.22229 44.46421,37.14953 177.094824,147.47574 177.183704,147.38686 0.07,-0.07 -0.56043,-34.73538 -1.40088,-77.03426 z m 100.34218,66.1379 c -17.11245,-1.48601 -35.09286,-9.77845 -50.98845,-23.51556 -4.18395,-3.61583 -11.22879,-10.93282 -14.19495,-14.74336 -10.95183,-14.06945 -16.92225,-29.45257 -16.99332,-43.78412 -0.0129,-2.58396 0.061,-4.78321 0.16395,-4.88723 0.10299,-0.10402 20.62299,-3.36276 45.6,-7.24165 l 45.41277,-7.05251 1.5,-1.69515 c 0.825,-0.93233 1.92195,-2.16745 2.43768,-2.74469 l 0.93768,-1.04954 4.08804,3.4323 c 2.24841,1.88776 4.05396,3.52607 4.01232,3.64068 -0.0416,0.11461 -1.01205,1.34978 -2.15646,2.74482 l -2.08077,2.53643 0.0686,3.25732 c 0.15735,7.47928 2.12724,79.57472 2.30337,84.30121 l 0.19167,5.14389 -2.65104,0.61417 c -4.67757,1.08365 -12.11913,1.52336 -17.65104,1.04299 z m 12.17064,-45.09494 c -0.50601,-18.8925 -1.00089,-35.86735 -1.09974,-37.72189 l -0.1797,-3.37189 -0.9456,1.18141 c -0.52008,0.64977 -1.05885,1.18838 -1.19724,1.19689 -0.26121,0.0161 -8.29836,-6.57294 -8.29836,-6.80315 0,-0.0717 0.47121,-0.70544 1.04715,-1.40829 l 1.04715,-1.2779 -3.22215,0.49787 c -1.77219,0.27382 -19.185,2.984 -38.69511,6.02262 l -35.47299,5.52475 0.67299,0.65703 c 0.37011,0.36136 20.11296,16.86644 43.87296,36.67795 l 43.2,36.02093 0.0953,-1.42317 c 0.0524,-0.78273 -0.31866,-16.88066 -0.8247,-35.77316 z M 5.976126,789.25026 c -10.09562,-0.94049 -21.89862,-4.69217 -31.52667,-10.02103 -12.1001,-6.69706 -24.27424,-16.91323 -33.02825,-27.71631 -2.59215,-3.1989 -7.18295,-10.11865 -9.05864,-13.65415 -4.15523,-7.83224 -7.115,-17.11273 -8.12874,-25.48798 -0.40026,-3.30687 -0.40192,-9.81423 -0.003,-10.06105 0.2748,-0.16984 89.97351,-14.24614 90.78407,-14.24662 0.18656,-1.1e-4 1.33406,-1.21355 2.55,-2.69653 1.21593,-1.48299 2.31094,-2.69799 2.43336,-2.7 0.16076,-0.003 6.06274,4.81834 8.2864,6.76869 0.0599,0.0526 -0.904,1.28951 -2.14206,2.74878 l -2.25103,2.6532 1.14216,42.13783 c 0.62818,23.1758 1.21167,44.05248 1.29664,46.39262 l 0.15448,4.2548 -2.60458,0.60326 c -1.43252,0.33179 -3.91551,0.74588 -5.51776,0.9202 -2.72808,0.29681 -9.69097,0.35543 -12.38682,0.10429 z m 12.47225,-42.12294 c -0.49861,-18.37792 -0.99541,-35.82488 -1.10399,-38.77103 l -0.19743,-5.35662 -1.12691,1.30662 c -1.05495,1.22318 -1.16259,1.2762 -1.68542,0.83018 -0.30718,-0.26204 -2.14475,-1.79446 -4.0835,-3.40537 -1.93875,-1.61091 -3.525,-2.99708 -3.525,-3.08039 0,-0.0833 0.42127,-0.68335 0.93617,-1.33346 0.51489,-0.6501 0.88614,-1.21776 0.82499,-1.26146 -0.19258,-0.13765 -77.06218,11.93587 -77.04091,12.10043 0.0111,0.0862 19.75489,16.59849 43.875,36.69401 26.28267,21.89725 43.89058,36.36786 43.94416,36.1144 0.0492,-0.2326 -0.31855,-15.45939 -0.81716,-33.83731 z M 3.358686,676.5033 c -12.4597,-1.69888 -24.83141,-6.55909 -36.38256,-14.29285 -23.10839,-15.4716 -38.02985,-36.07911 -42.17948,-58.25261 -0.81084,-4.33269 -1.17369,-13.90325 -0.53577,-14.13132 0.22839,-0.0816 20.80025,-3.32496 45.71525,-7.20735 l 45.3,-7.05891 1.5,-1.70857 c 0.825,-0.93971 1.905,-2.15465 2.4,-2.69986 l 0.9,-0.99128 3.17053,2.62618 c 1.74379,1.44441 3.61111,2.99803 4.14958,3.45251 l 0.97905,0.82631 -2.27196,2.72296 -2.27196,2.72296 0.17892,5.30073 c 0.8658,25.65118 2.36898,87.23408 2.1331,87.38979 -0.43067,0.28431 -4.56784,1.13035 -7.11726,1.45547 -3.18353,0.40598 -12.21075,0.31716 -15.66744,-0.15416 z m 15.96744,-8.26552 c 0,-1.86675 -2.12327,-77.26059 -2.18109,-77.44661 -0.0379,-0.12196 -0.55463,0.37758 -1.14828,1.1101 l -1.07936,1.33185 -4.07889,-3.3601 c -2.24338,-1.84806 -4.08093,-3.4951 -4.08344,-3.6601 -0.002,-0.165 0.39829,-0.77139 0.89065,-1.34753 0.49237,-0.57615 0.76567,-1.09072 0.60733,-1.1435 -0.36117,-0.12039 -75.58703,11.59312 -76.29796,11.88045 -0.39969,0.16153 9.66196,8.71161 43.2,36.71004 24.04656996,20.0747 43.82229,36.51095 43.94604,36.525 0.12375,0.014 0.225,-0.25578 0.225,-0.5996 z"
       style="fill:#d21a16" />
  </g>
</svg>
